<svg width="192" height="192" viewBox="0 0 192 192" fill="none" xmlns="http://www.w3.org/2000/svg">
<path d="M87.4099 118.405H73.65V74.2216H87.4099V118.405Z" fill="white"/>
<path d="M48.0556 118.405H61.8155V91.3899C61.8155 77.5037 55.7561 74.2216 44.8997 74.2216H35.9999V86.5928H44.521C47.4244 86.5928 48.0556 89.0545 48.0556 91.9579H35.9999V103.319H48.0556V118.405Z" fill="white"/>
<path d="M156 118.405H142.24V74.2216H156V118.405Z" fill="white"/>
<path d="M116.646 118.405H130.406V91.3899C130.406 77.5037 124.346 74.2216 113.49 74.2216H104.59V86.5928H113.111C116.015 86.5928 116.646 89.0545 116.646 91.9579H104.59V103.319H116.646V118.405Z" fill="white"/>
</svg>
