<svg width="512" height="512" viewBox="0 0 512 512" fill="none" xmlns="http://www.w3.org/2000/svg">
<path d="M247.41 278.183H233.65V234H247.41V278.183Z" fill="white"/>
<path d="M208.056 278.183H221.815V251.168C221.815 237.282 215.756 234 204.9 234H196V246.371H204.521C207.424 246.371 208.056 248.833 208.056 251.736H196V263.098H208.056V278.183Z" fill="white"/>
<path d="M316 278.183H302.24V234H316V278.183Z" fill="white"/>
<path d="M276.646 278.183H290.406V251.168C290.406 237.282 284.346 234 273.49 234H264.59V246.371H273.111C276.015 246.371 276.646 248.833 276.646 251.736H264.59V263.098H276.646V278.183Z" fill="white"/>
</svg>
