<svg width="53" height="53" viewBox="0 0 53 53" fill="none" xmlns="http://www.w3.org/2000/svg">
<path d="M52.5 26.516C52.5 12.1566 40.8594 0.515991 26.5 0.515991C12.1406 0.515991 0.5 12.1566 0.5 26.516C0.5 40.8754 12.1406 52.516 26.5 52.516C40.8594 52.516 52.5 40.8754 52.5 26.516Z" fill="white"/>
<path fill-rule="evenodd" clip-rule="evenodd" d="M39.2227 26.8114C39.2227 25.8896 39.14 25.0033 38.9863 24.1523H26.7427V29.181H33.7391C33.4377 30.806 32.5218 32.1828 31.145 33.1046V36.3665H35.3463C37.8045 34.1033 39.2227 30.7705 39.2227 26.8114Z" fill="#4285F4"/>
<path fill-rule="evenodd" clip-rule="evenodd" d="M26.7438 39.516C30.2538 39.516 33.1965 38.3519 35.3474 36.3664L31.146 33.1046C29.982 33.8846 28.4929 34.3455 26.7438 34.3455C23.3578 34.3455 20.4919 32.0587 19.4697 28.986H15.1265V32.3542C17.2656 36.6028 21.6619 39.516 26.7438 39.516Z" fill="#34A853"/>
<path fill-rule="evenodd" clip-rule="evenodd" d="M19.4686 28.9859C19.2086 28.2059 19.0609 27.3727 19.0609 26.5159C19.0609 25.6591 19.2086 24.8259 19.4686 24.0459V20.6777H15.1254C14.2449 22.4327 13.7427 24.4182 13.7427 26.5159C13.7427 28.6137 14.2449 30.5991 15.1254 32.3541L19.4686 28.9859Z" fill="#FBBC05"/>
<path fill-rule="evenodd" clip-rule="evenodd" d="M26.7438 18.6865C28.6524 18.6865 30.366 19.3424 31.7133 20.6306L35.442 16.9019C33.1906 14.8042 30.2479 13.516 26.7438 13.516C21.6619 13.516 17.2656 16.4292 15.1265 20.6778L19.4697 24.046C20.4919 20.9733 23.3578 18.6865 26.7438 18.6865Z" fill="#EA4335"/>
</svg>
