<svg width="30" height="31" viewBox="0 0 30 31" fill="none" xmlns="http://www.w3.org/2000/svg">
<path fill-rule="evenodd" clip-rule="evenodd" d="M24.9994 15.9519C24.9994 15.2283 24.9344 14.5325 24.8138 13.8646H15.2031V17.8119H20.695C20.4584 19.0874 19.7394 20.1682 18.6587 20.8918V23.4521H21.9566C23.8862 21.6756 24.9994 19.0596 24.9994 15.9519Z" fill="#4285F4"/>
<path fill-rule="evenodd" clip-rule="evenodd" d="M15.205 25.9243C17.9602 25.9243 20.2701 25.0105 21.9584 23.452L18.6606 20.8916C17.7468 21.5039 16.5779 21.8657 15.205 21.8657C12.5472 21.8657 10.2976 20.0706 9.49514 17.6587H6.08594V20.3026C7.76503 23.6375 11.216 25.9243 15.205 25.9243Z" fill="#34A853"/>
<path fill-rule="evenodd" clip-rule="evenodd" d="M9.49458 17.6586C9.29049 17.0464 9.17453 16.3924 9.17453 15.7198C9.17453 15.0472 9.29049 14.3932 9.49458 13.781V11.1371H6.08538C5.39426 12.5147 5 14.0732 5 15.7198C5 17.3664 5.39426 18.9249 6.08538 20.3025L9.49458 17.6586Z" fill="#FBBC05"/>
<path fill-rule="evenodd" clip-rule="evenodd" d="M15.205 9.5742C16.7032 9.5742 18.0483 10.0891 19.1058 11.1002L22.0326 8.17341C20.2654 6.52679 17.9555 5.51562 15.205 5.51562C11.216 5.51562 7.76503 7.80234 6.08594 11.1373L9.49514 13.7812C10.2976 11.3692 12.5472 9.5742 15.205 9.5742Z" fill="#EA4335"/>
</svg>
