<svg width="30" height="31" viewBox="0 0 30 31" fill="none" xmlns="http://www.w3.org/2000/svg">
<path d="M27 15.5C27 8.87258 21.6274 3.5 15 3.5C8.37258 3.5 3 8.87258 3 15.5C3 22.1274 8.37258 27.5 15 27.5C21.6274 27.5 27 22.1274 27 15.5Z" fill="#FFE812"/>
<path fill-rule="evenodd" clip-rule="evenodd" d="M15 9.90002C11.6861 9.90002 9 11.9753 9 14.5349C9 16.1267 10.0389 17.53 11.621 18.3647L10.9554 20.7964C10.8965 21.0113 11.1423 21.1825 11.331 21.058L14.2489 19.1322C14.4952 19.156 14.7454 19.1698 15 19.1698C18.3137 19.1698 21 17.0946 21 14.5349C21 11.9753 18.3137 9.90002 15 9.90002Z" fill="#381F1F"/>
</svg>
