<svg width="53" height="53" viewBox="0 0 53 53" fill="none" xmlns="http://www.w3.org/2000/svg">
<path d="M52.5 26.516C52.5 12.1566 40.8594 0.515991 26.5 0.515991C12.1406 0.515991 0.5 12.1566 0.5 26.516C0.5 40.8754 12.1406 52.516 26.5 52.516C40.8594 52.516 52.5 40.8754 52.5 26.516Z" fill="#FFE812"/>
<path fill-rule="evenodd" clip-rule="evenodd" d="M26.5001 14.3826C19.3199 14.3826 13.5 18.8791 13.5 24.4248C13.5 27.8738 15.751 30.9143 19.1789 32.7227L17.7366 37.9914C17.6092 38.4569 18.1416 38.828 18.5505 38.5582L24.8727 34.3856C25.4062 34.4371 25.9484 34.4671 26.5001 34.4671C33.6796 34.4671 39.5 29.9708 39.5 24.4248C39.5 18.8791 33.6796 14.3826 26.5001 14.3826Z" fill="#381F1F"/>
</svg>
