<svg width="21" height="21" viewBox="0 0 21 21" fill="none" xmlns="http://www.w3.org/2000/svg">
<path d="M18.442 6.19034L8.44205 16.1903C8.384 16.2484 8.31507 16.2945 8.2392 16.326C8.16332 16.3575 8.08199 16.3736 7.99986 16.3736C7.91772 16.3736 7.8364 16.3575 7.76052 16.326C7.68465 16.2945 7.61572 16.2484 7.55767 16.1903L3.18267 11.8153C3.0654 11.6981 2.99951 11.539 2.99951 11.3732C2.99951 11.2073 3.0654 11.0482 3.18267 10.931C3.29995 10.8137 3.45901 10.7478 3.62486 10.7478C3.79071 10.7478 3.94977 10.8137 4.06705 10.931L7.99986 14.8646L17.5577 5.30596C17.6749 5.18869 17.834 5.1228 17.9999 5.1228C18.1657 5.1228 18.3248 5.18869 18.442 5.30596C18.5593 5.42324 18.6252 5.5823 18.6252 5.74815C18.6252 5.914 18.5593 6.07306 18.442 6.19034Z" fill="#33C481"/>
</svg>
