<svg width="21" height="21" viewBox="0 0 21 21" fill="none" xmlns="http://www.w3.org/2000/svg">
<path d="M10.5 2.49805C8.89303 2.49805 7.32214 2.97457 5.986 3.86736C4.64985 4.76014 3.60844 6.02909 2.99348 7.51374C2.37852 8.99839 2.21762 10.6321 2.53112 12.2082C2.84463 13.7843 3.61846 15.232 4.75476 16.3683C5.89106 17.5046 7.3388 18.2784 8.9149 18.5919C10.491 18.9054 12.1247 18.7445 13.6093 18.1296C15.094 17.5146 16.3629 16.4732 17.2557 15.1371C18.1485 13.8009 18.625 12.23 18.625 10.623C18.6227 8.46886 17.766 6.40356 16.2427 4.88032C14.7195 3.35708 12.6542 2.50032 10.5 2.49805ZM10.5 17.498C9.14026 17.498 7.81105 17.0948 6.68046 16.3394C5.54987 15.584 4.66868 14.5102 4.14833 13.254C3.62798 11.9978 3.49183 10.6154 3.7571 9.2818C4.02238 7.94818 4.67716 6.72317 5.63864 5.76169C6.60013 4.8002 7.82514 4.14542 9.15876 3.88015C10.4924 3.61487 11.8747 3.75102 13.131 4.27138C14.3872 4.79173 15.4609 5.67291 16.2164 6.8035C16.9718 7.93409 17.375 9.2633 17.375 10.623C17.3729 12.4458 16.6479 14.1933 15.3591 15.4821C14.0702 16.771 12.3227 17.496 10.5 17.498ZM9.875 11.248V6.87305C9.875 6.70729 9.94085 6.54832 10.0581 6.43111C10.1753 6.31389 10.3342 6.24805 10.5 6.24805C10.6658 6.24805 10.8247 6.31389 10.9419 6.43111C11.0592 6.54832 11.125 6.70729 11.125 6.87305V11.248C11.125 11.4138 11.0592 11.5728 10.9419 11.69C10.8247 11.8072 10.6658 11.873 10.5 11.873C10.3342 11.873 10.1753 11.8072 10.0581 11.69C9.94085 11.5728 9.875 11.4138 9.875 11.248ZM11.4375 14.0605C11.4375 14.246 11.3825 14.4272 11.2795 14.5814C11.1765 14.7356 11.0301 14.8557 10.8588 14.9267C10.6875 14.9976 10.499 15.0162 10.3171 14.98C10.1352 14.9439 9.9682 14.8546 9.83709 14.7235C9.70598 14.5923 9.61669 14.4253 9.58052 14.2434C9.54434 14.0616 9.56291 13.8731 9.63387 13.7018C9.70482 13.5305 9.82499 13.3841 9.97916 13.281C10.1333 13.178 10.3146 13.123 10.5 13.123C10.7486 13.123 10.9871 13.2218 11.1629 13.3976C11.3387 13.5735 11.4375 13.8119 11.4375 14.0605Z" fill="#FF5C5C"/>
</svg>
