<svg width="41" height="40" viewBox="0 0 41 40" fill="none" xmlns="http://www.w3.org/2000/svg">
<path d="M31.4922 25.618C30.8418 24.4977 29.875 21.3277 29.875 17.1875C29.875 14.7011 28.8873 12.3165 27.1291 10.5584C25.371 8.80022 22.9864 7.8125 20.5 7.8125C18.0136 7.8125 15.629 8.80022 13.8709 10.5584C12.1127 12.3165 11.125 14.7011 11.125 17.1875C11.125 21.3289 10.157 24.4977 9.50663 25.618C9.34054 25.9028 9.25249 26.2264 9.25135 26.5561C9.25022 26.8858 9.33605 27.2099 9.50018 27.4959C9.66431 27.7818 9.90094 28.0195 10.1862 28.1848C10.4715 28.3501 10.7953 28.4373 11.125 28.4375H15.9074C16.1237 29.4959 16.6989 30.4471 17.5358 31.1302C18.3726 31.8133 19.4197 32.1864 20.5 32.1864C21.5802 32.1864 22.6274 31.8133 23.4642 31.1302C24.301 30.4471 24.8763 29.4959 25.0926 28.4375H29.875C30.2046 28.4371 30.5283 28.3497 30.8134 28.1843C31.0985 28.0189 31.3349 27.7813 31.4989 27.4954C31.6629 27.2095 31.7486 26.8854 31.7474 26.5558C31.7463 26.2262 31.6582 25.9027 31.4922 25.618ZM20.5 30.3125C19.9185 30.3123 19.3514 30.1319 18.8767 29.7961C18.402 29.4604 18.043 28.9857 17.8492 28.4375H23.1508C22.9569 28.9857 22.598 29.4604 22.1233 29.7961C21.6486 30.1319 21.0814 30.3123 20.5 30.3125ZM11.125 26.5625C12.0273 25.0109 13 21.4156 13 17.1875C13 15.1984 13.7902 13.2907 15.1967 11.8842C16.6032 10.4777 18.5109 9.6875 20.5 9.6875C22.4891 9.6875 24.3968 10.4777 25.8033 11.8842C27.2098 13.2907 28 15.1984 28 17.1875C28 21.4121 28.9703 25.0074 29.875 26.5625H11.125Z" fill="#222222"/>
</svg>
