<svg width="31" height="30" viewBox="0 0 31 30" fill="none" xmlns="http://www.w3.org/2000/svg">
<path d="M22.0625 3.75H8.9375C8.44022 3.75 7.96331 3.94754 7.61167 4.29917C7.26004 4.65081 7.0625 5.12772 7.0625 5.625V26.25C7.06258 26.4173 7.10744 26.5815 7.19241 26.7257C7.27738 26.8698 7.39938 26.9886 7.54573 27.0696C7.69209 27.1507 7.85747 27.1911 8.02472 27.1867C8.19198 27.1823 8.355 27.1332 8.49687 27.0445L15.5 22.6676L22.5043 27.0445C22.6462 27.1329 22.8091 27.1817 22.9761 27.186C23.1432 27.1903 23.3084 27.1498 23.4545 27.0687C23.6007 26.9877 23.7226 26.8691 23.8075 26.7251C23.8924 26.5812 23.9373 26.4171 23.9375 26.25V5.625C23.9375 5.12772 23.74 4.65081 23.3883 4.29917C23.0367 3.94754 22.5598 3.75 22.0625 3.75Z" fill="#222222"/>
</svg>
