<svg width="31" height="30" viewBox="0 0 31 30" fill="none" xmlns="http://www.w3.org/2000/svg">
<path d="M22.0625 3.98438H8.9375C8.50238 3.98438 8.08508 4.15723 7.7774 4.4649C7.46973 4.77258 7.29688 5.18988 7.29688 5.625V26.25C7.29683 26.3755 7.3304 26.4988 7.39409 26.607C7.45777 26.7151 7.54926 26.8043 7.65904 26.8652C7.76883 26.926 7.89291 26.9564 8.0184 26.9531C8.14389 26.9498 8.26621 26.913 8.37266 26.8465L15.4988 22.3934L22.6273 26.8465C22.7338 26.913 22.8561 26.9498 22.9816 26.9531C23.1071 26.9564 23.2312 26.926 23.341 26.8652C23.4507 26.8043 23.5422 26.7151 23.6059 26.607C23.6696 26.4988 23.7032 26.3755 23.7031 26.25V5.625C23.7031 5.18988 23.5303 4.77258 23.2226 4.4649C22.9149 4.15723 22.4976 3.98438 22.0625 3.98438ZM22.2969 24.9809L15.8715 20.966C15.7597 20.8962 15.6306 20.8591 15.4988 20.8591C15.367 20.8591 15.2379 20.8962 15.1262 20.966L8.70312 24.9809V5.625C8.70312 5.56284 8.72782 5.50323 8.77177 5.45927C8.81573 5.41532 8.87534 5.39062 8.9375 5.39062H22.0625C22.1247 5.39062 22.1843 5.41532 22.2282 5.45927C22.2722 5.50323 22.2969 5.56284 22.2969 5.625V24.9809Z" fill="#A5A5A5"/>
</svg>
