<svg width="20" height="21" viewBox="0 0 20 21" fill="none" xmlns="http://www.w3.org/2000/svg">
<path d="M14.375 3.23926H5.625C5.29348 3.23926 4.97554 3.37095 4.74112 3.60537C4.5067 3.83979 4.375 4.15774 4.375 4.48926V18.2393C4.37506 18.3508 4.40496 18.4603 4.46161 18.5564C4.51826 18.6525 4.59959 18.7316 4.69716 18.7857C4.79473 18.8397 4.90498 18.8667 5.01648 18.8637C5.12798 18.8608 5.23666 18.8281 5.33125 18.7689L10 15.851L14.6695 18.7689C14.7641 18.8279 14.8727 18.8604 14.9841 18.8633C15.0955 18.8661 15.2056 18.8391 15.303 18.7851C15.4005 18.7311 15.4817 18.652 15.5383 18.556C15.5949 18.46 15.6249 18.3507 15.625 18.2393V4.48926C15.625 4.15774 15.4933 3.83979 15.2589 3.60537C15.0245 3.37095 14.7065 3.23926 14.375 3.23926Z" fill="#FFE600"/>
</svg>
