<svg width="17" height="17" viewBox="0 0 17 17" fill="none" xmlns="http://www.w3.org/2000/svg">
<path d="M12.0306 9.03063L7.03063 14.0306C6.88973 14.1715 6.69864 14.2507 6.49938 14.2507C6.30012 14.2507 6.10902 14.1715 5.96813 14.0306C5.82723 13.8897 5.74808 13.6986 5.74808 13.4994C5.74808 13.3001 5.82723 13.109 5.96813 12.9681L10.4375 8.5L5.96938 4.03063C5.89961 3.96086 5.84427 3.87804 5.80652 3.78689C5.76876 3.69574 5.74933 3.59804 5.74933 3.49938C5.74933 3.40072 5.76876 3.30302 5.80652 3.21187C5.84427 3.12072 5.89961 3.03789 5.96938 2.96813C6.03914 2.89836 6.12197 2.84302 6.21312 2.80527C6.30427 2.76751 6.40197 2.74808 6.50063 2.74808C6.59929 2.74808 6.69699 2.76751 6.78814 2.80527C6.87929 2.84302 6.96211 2.89836 7.03188 2.96813L12.0319 7.96813C12.1017 8.03789 12.1571 8.12075 12.1948 8.21196C12.2326 8.30317 12.252 8.40093 12.2518 8.49964C12.2517 8.59835 12.2321 8.69607 12.1942 8.78719C12.1562 8.8783 12.1006 8.96103 12.0306 9.03063Z" fill="#A5A5A5"/>
</svg>
