<svg width="31" height="30" viewBox="0 0 31 30" fill="none" xmlns="http://www.w3.org/2000/svg">
<path d="M19.9133 23.7118C20.0004 23.7989 20.0695 23.9023 20.1166 24.0161C20.1638 24.1299 20.188 24.2519 20.188 24.375C20.188 24.4982 20.1638 24.6202 20.1166 24.734C20.0695 24.8478 20.0004 24.9512 19.9133 25.0383C19.8262 25.1254 19.7228 25.1945 19.609 25.2417C19.4952 25.2888 19.3732 25.3131 19.25 25.3131C19.1268 25.3131 19.0048 25.2888 18.891 25.2417C18.7772 25.1945 18.6738 25.1254 18.5867 25.0383L9.21172 15.6633C9.12456 15.5762 9.05541 15.4728 9.00823 15.359C8.96105 15.2452 8.93677 15.1232 8.93677 15C8.93677 14.8768 8.96105 14.7548 9.00823 14.641C9.05541 14.5272 9.12456 14.4238 9.21172 14.3368L18.5867 4.96175C18.7626 4.78584 19.0012 4.68701 19.25 4.68701C19.4988 4.68701 19.7374 4.78584 19.9133 4.96175C20.0892 5.13766 20.188 5.37625 20.188 5.62503C20.188 5.87381 20.0892 6.1124 19.9133 6.28831L11.2004 15L19.9133 23.7118Z" fill="#222222"/>
</svg>
