<svg width="26" height="27" viewBox="0 0 26 27" fill="none" xmlns="http://www.w3.org/2000/svg">
<g filter="url(#filter0_d_194_13332)">
<path d="M12.9998 1.875C11.5971 1.87469 10.2181 2.23757 8.99721 2.9283C7.7763 3.61904 6.75501 4.6141 6.03277 5.81664C5.31052 7.01918 4.91192 8.38822 4.87575 9.79052C4.83958 11.1928 5.16709 12.5806 5.82638 13.8188L4.93966 16.4789C4.86621 16.6992 4.85556 16.9355 4.90888 17.1615C4.96221 17.3874 5.07741 17.5941 5.24158 17.7582C5.40575 17.9224 5.61239 18.0376 5.83836 18.0909C6.06432 18.1443 6.30067 18.1336 6.52091 18.0602L9.18107 17.1734C10.2707 17.753 11.4781 18.0767 12.7116 18.12C13.945 18.1633 15.1721 17.925 16.2997 17.4232C17.4273 16.9215 18.4258 16.1694 19.2194 15.2241C20.0129 14.2789 20.5807 13.1652 20.8796 11.9678C21.1785 10.7703 21.2007 9.52047 20.9445 8.31315C20.6882 7.10584 20.1603 5.97276 19.4008 4.99993C18.6413 4.02711 17.6701 3.24009 16.561 2.69864C15.4519 2.15718 14.234 1.87551 12.9998 1.875ZM12.9998 16.875C11.7912 16.8758 10.6038 16.5575 9.55763 15.9523C9.48104 15.9079 9.39587 15.8803 9.30779 15.8713C9.21971 15.8622 9.13071 15.872 9.0467 15.9L6.12482 16.875L7.09904 13.9531C7.12712 13.8692 7.13705 13.7802 7.12816 13.6921C7.11927 13.604 7.09177 13.5188 7.04748 13.4422C6.28964 12.132 5.98537 10.6083 6.18187 9.10747C6.37837 7.60667 7.06466 6.21267 8.13426 5.14171C9.20387 4.07076 10.597 3.38271 12.0976 3.18431C13.5981 2.98592 15.1222 3.28826 16.4334 4.04444C17.7445 4.80062 18.7695 5.96837 19.3493 7.36652C19.9291 8.76468 20.0313 10.3151 19.64 11.7773C19.2487 13.2394 18.3858 14.5316 17.1852 15.4533C15.9846 16.375 14.5134 16.8748 12.9998 16.875Z" fill="#A5A5A5"/>
</g>
<defs>
<filter id="filter0_d_194_13332" x="-1" y="0" width="28" height="28" filterUnits="userSpaceOnUse" color-interpolation-filters="sRGB">
<feFlood flood-opacity="0" result="BackgroundImageFix"/>
<feColorMatrix in="SourceAlpha" type="matrix" values="0 0 0 0 0 0 0 0 0 0 0 0 0 0 0 0 0 0 127 0" result="hardAlpha"/>
<feOffset dy="4"/>
<feGaussianBlur stdDeviation="2"/>
<feComposite in2="hardAlpha" operator="out"/>
<feColorMatrix type="matrix" values="0 0 0 0 0 0 0 0 0 0 0 0 0 0 0 0 0 0 0.25 0"/>
<feBlend mode="normal" in2="BackgroundImageFix" result="effect1_dropShadow_194_13332"/>
<feBlend mode="normal" in="SourceGraphic" in2="effect1_dropShadow_194_13332" result="shape"/>
</filter>
</defs>
</svg>
