<svg width="51" height="19" viewBox="0 0 51 19" fill="none" xmlns="http://www.w3.org/2000/svg">
<path d="M50.5008 18.2727H44.9248V0.368042H50.5008V18.2727Z" fill="#222222"/>
<path d="M34.5529 18.2727H40.1289V7.32528C40.1289 1.6981 37.6734 0.368042 33.274 0.368042H29.6675V5.38134H33.1205C34.2971 5.38134 34.5529 6.37889 34.5529 7.55548H29.6675V12.1595H34.5529V18.2727Z" fill="#222222"/>
<path d="M5.38587 18.2728H10.9619V7.3253C10.9619 1.69811 8.50641 0.368042 4.10696 0.368042H0.500443V5.38136H3.9535C5.13009 5.38136 5.38587 6.37891 5.38587 7.55551H0.500443V12.1596H5.38587V18.2728Z" fill="#222222"/>
<path d="M21.3339 18.2728H15.7578V0.368042H21.3339V18.2728Z" fill="#222222"/>
</svg>
