<svg width="51" height="18" viewBox="0 0 51 18" fill="none" xmlns="http://www.w3.org/2000/svg">
<path d="M50.5008 17.9523H44.9248V0.0476379H50.5008V17.9523Z" fill="#33C481"/>
<path d="M34.5529 17.9523H40.1289V7.00487C40.1289 1.3777 37.6734 0.0476379 33.274 0.0476379H29.6675V5.06094H33.1205C34.2971 5.06094 34.5529 6.05848 34.5529 7.23507H29.6675V11.8391H34.5529V17.9523Z" fill="#33C481"/>
<path d="M5.38587 17.9524H10.9619V7.0049C10.9619 1.3777 8.50641 0.0476379 4.10696 0.0476379H0.500443V5.06096H3.9535C5.13009 5.06096 5.38587 6.05851 5.38587 7.2351H0.500443V11.8392H5.38587V17.9524Z" fill="#33C481"/>
<path d="M21.3339 17.9524H15.7578V0.0476379H21.3339V17.9524Z" fill="#33C481"/>
</svg>
