<svg width="41" height="40" viewBox="0 0 41 40" fill="none" xmlns="http://www.w3.org/2000/svg">
<rect x="20.5" y="20" width="20" height="20" fill="black"/>
<path d="M36.2616 35.3715H32.916V24.6287H36.2616V35.3715Z" fill="#33C481"/>
<path d="M26.693 35.3715H30.0386V28.803C30.0386 25.4267 28.5653 24.6287 25.9256 24.6287H23.7617V27.6366H25.8335C26.5395 27.6366 26.693 28.2352 26.693 28.9411H23.7617V31.7036H26.693V35.3715Z" fill="#33C481"/>
<rect x="20.5" width="20" height="20" fill="#33C481"/>
<rect x="0.5" width="20" height="20" fill="black"/>
<path d="M16.2616 15.3715H12.916V4.62866H16.2616V15.3715Z" fill="#33C481"/>
<path d="M6.69296 15.3715H10.0386V8.803C10.0386 5.4267 8.56528 4.62866 5.92562 4.62866H3.76172V7.63664H5.83354C6.53949 7.63664 6.69296 8.23517 6.69296 8.94112H3.76172V11.7036H6.69296V15.3715Z" fill="#33C481"/>
</svg>
