<svg width="32" height="32" viewBox="0 0 32 32" fill="none" xmlns="http://www.w3.org/2000/svg">
<path d="M28.5303 27.47L22.1078 21.0475C23.9393 18.9413 24.8815 16.2063 24.7357 13.419C24.5899 10.6317 23.3677 8.00984 21.3265 6.10614C19.2854 4.20244 16.5848 3.16562 13.7941 3.21422C11.0034 3.26282 8.34061 4.39306 6.36699 6.36668C4.39337 8.3403 3.26313 11.0031 3.21453 13.7938C3.16592 16.5845 4.20275 19.2851 6.10644 21.3262C8.01014 23.3674 10.632 24.5896 13.4193 24.7354C16.2066 24.8811 18.9416 23.939 21.0478 22.1075L27.4703 28.53C27.6125 28.6625 27.8006 28.7346 27.9949 28.7312C28.1892 28.7278 28.3745 28.6491 28.512 28.5116C28.6494 28.3742 28.7281 28.1889 28.7315 27.9945C28.7349 27.8002 28.6628 27.6122 28.5303 27.47ZM4.75033 14C4.75033 12.1705 5.29283 10.3822 6.30924 8.861C7.32564 7.33985 8.77029 6.15425 10.4605 5.45414C12.1507 4.75403 14.0106 4.57085 15.8049 4.92776C17.5992 5.28468 19.2474 6.16565 20.5411 7.45929C21.8347 8.75292 22.7157 10.4011 23.0726 12.1954C23.4295 13.9898 23.2463 15.8496 22.5462 17.5398C21.8461 19.2301 20.6605 20.6747 19.1394 21.6911C17.6182 22.7075 15.8298 23.25 14.0003 23.25C11.548 23.247 9.19695 22.2715 7.46288 20.5375C5.72882 18.8034 4.75331 16.4524 4.75033 14Z" fill="#A5A5A5"/>
</svg>
