<svg width="20" height="21" viewBox="0 0 20 21" fill="none" xmlns="http://www.w3.org/2000/svg">
<path d="M17.9422 4.77681L15.4422 2.27681C15.3841 2.2187 15.3152 2.1726 15.2393 2.14115C15.1635 2.10969 15.0821 2.09351 15 2.09351C14.9179 2.09351 14.8365 2.10969 14.7607 2.14115C14.6848 2.1726 14.6159 2.2187 14.5578 2.27681L7.05781 9.77681C6.99979 9.8349 6.95378 9.90385 6.92242 9.97972C6.89105 10.0556 6.87494 10.1369 6.875 10.219V12.719C6.875 12.8848 6.94085 13.0437 7.05806 13.1609C7.17527 13.2782 7.33424 13.344 7.5 13.344H10C10.0821 13.3441 10.1634 13.328 10.2393 13.2966C10.3152 13.2652 10.3841 13.2192 10.4422 13.1612L17.9422 5.66119C18.0003 5.60314 18.0464 5.53421 18.0779 5.45834C18.1093 5.38246 18.1255 5.30113 18.1255 5.219C18.1255 5.13686 18.1093 5.05553 18.0779 4.97966C18.0464 4.90379 18.0003 4.83486 17.9422 4.77681ZM9.74141 12.094H8.125V10.4776L13.125 5.47759L14.7414 7.094L9.74141 12.094ZM15.625 6.2104L14.0086 4.594L15 3.60259L16.6164 5.219L15.625 6.2104ZM17.5 9.594V16.469C17.5 16.8005 17.3683 17.1185 17.1339 17.3529C16.8995 17.5873 16.5815 17.719 16.25 17.719H3.75C3.41848 17.719 3.10054 17.5873 2.86612 17.3529C2.6317 17.1185 2.5 16.8005 2.5 16.469V3.969C2.5 3.63748 2.6317 3.31953 2.86612 3.08511C3.10054 2.85069 3.41848 2.719 3.75 2.719H10.625C10.7908 2.719 10.9497 2.78485 11.0669 2.90206C11.1842 3.01927 11.25 3.17824 11.25 3.344C11.25 3.50976 11.1842 3.66873 11.0669 3.78594C10.9497 3.90315 10.7908 3.969 10.625 3.969H3.75V16.469H16.25V9.594C16.25 9.42824 16.3158 9.26927 16.4331 9.15206C16.5503 9.03485 16.7092 8.969 16.875 8.969C17.0408 8.969 17.1997 9.03485 17.3169 9.15206C17.4342 9.26927 17.5 9.42824 17.5 9.594Z" fill="#A5A5A5"/>
</svg>
