<svg width="31" height="30" viewBox="0 0 31 30" fill="none" xmlns="http://www.w3.org/2000/svg">
<path d="M27.1391 8.59801L21.902 3.36207C21.7278 3.18792 21.5211 3.04977 21.2936 2.95551C21.0661 2.86126 20.8223 2.81274 20.576 2.81274C20.3297 2.81274 20.0859 2.86126 19.8584 2.95551C19.6308 3.04977 19.4241 3.18792 19.25 3.36207L4.79962 17.8125C4.62475 17.9859 4.48611 18.1924 4.39176 18.42C4.29741 18.6475 4.24922 18.8915 4.25001 19.1379V24.375C4.25001 24.8722 4.44755 25.3492 4.79918 25.7008C5.15081 26.0524 5.62773 26.25 6.12501 26.25H25.8125C26.0611 26.25 26.2996 26.1512 26.4754 25.9754C26.6512 25.7996 26.75 25.5611 26.75 25.3125C26.75 25.0638 26.6512 24.8254 26.4754 24.6495C26.2996 24.4737 26.0611 24.375 25.8125 24.375H14.0141L27.1391 11.25C27.3132 11.0758 27.4514 10.8691 27.5456 10.6416C27.6399 10.4141 27.6884 10.1702 27.6884 9.92398C27.6884 9.67772 27.6399 9.43387 27.5456 9.20635C27.4514 8.97884 27.3132 8.77212 27.1391 8.59801ZM11.3621 24.375H6.12501V19.1379L16.4375 8.82535L21.6746 14.0625L11.3621 24.375ZM23 12.7371L17.7641 7.49996L20.5766 4.68746L25.8125 9.92457L23 12.7371Z" fill="#222222"/>
</svg>
