<svg width="28" height="28" viewBox="0 0 28 28" fill="none" xmlns="http://www.w3.org/2000/svg">
<path d="M20.125 3.71875H7.875C7.46889 3.71875 7.07941 3.88008 6.79224 4.16724C6.50508 4.45441 6.34375 4.84389 6.34375 5.25V24.5C6.34371 24.6172 6.37504 24.7322 6.43448 24.8332C6.49392 24.9341 6.57931 25.0173 6.68177 25.0742C6.78424 25.131 6.90005 25.1593 7.01717 25.1562C7.13429 25.1532 7.24846 25.1188 7.34781 25.0567L13.9989 20.9005L20.6522 25.0567C20.7515 25.1188 20.8657 25.1532 20.9828 25.1562C21.1 25.1593 21.2158 25.131 21.3182 25.0742C21.4207 25.0173 21.5061 24.9341 21.5655 24.8332C21.625 24.7322 21.6563 24.6172 21.6562 24.5V5.25C21.6562 4.84389 21.4949 4.45441 21.2078 4.16724C20.9206 3.88008 20.5311 3.71875 20.125 3.71875ZM20.3438 23.3155L14.3467 19.5683C14.2424 19.5031 14.1219 19.4685 13.9989 19.4685C13.8759 19.4685 13.7554 19.5031 13.6511 19.5683L7.65625 23.3155V5.25C7.65625 5.19198 7.6793 5.13634 7.72032 5.09532C7.76134 5.0543 7.81698 5.03125 7.875 5.03125H20.125C20.183 5.03125 20.2387 5.0543 20.2797 5.09532C20.3207 5.13634 20.3438 5.19198 20.3438 5.25V23.3155Z" fill="#222222"/>
</svg>
