<svg width="29" height="28" viewBox="0 0 29 28" fill="none" xmlns="http://www.w3.org/2000/svg">
<path d="M20.625 3.5H8.375C7.91087 3.5 7.46575 3.68437 7.13756 4.01256C6.80937 4.34075 6.625 4.78587 6.625 5.25V24.5C6.62508 24.6562 6.66694 24.8094 6.74625 24.944C6.82556 25.0785 6.93942 25.1893 7.07602 25.265C7.21262 25.3406 7.36698 25.3784 7.52308 25.3743C7.67918 25.3701 7.83133 25.3243 7.96375 25.2416L14.5 21.1564L21.0373 25.2416C21.1697 25.324 21.3218 25.3696 21.4777 25.3736C21.6337 25.3776 21.7878 25.3398 21.9242 25.2642C22.0607 25.1885 22.1744 25.0778 22.2537 24.9434C22.3329 24.8091 22.3748 24.656 22.375 24.5V5.25C22.375 4.78587 22.1906 4.34075 21.8624 4.01256C21.5342 3.68437 21.0891 3.5 20.625 3.5Z" fill="#222222"/>
</svg>
