<svg width="24" height="24" viewBox="0 0 24 24" fill="none" xmlns="http://www.w3.org/2000/svg">
<path d="M21.7304 17.5622C22.2594 16.487 22.523 15.3007 22.4992 14.1027C22.4754 12.9046 22.1649 11.7297 21.5937 10.6763C21.0225 9.62298 20.2072 8.72181 19.2161 8.04831C18.225 7.37481 17.087 6.94859 15.8973 6.80533C15.5028 5.88557 14.9281 5.05409 14.2072 4.35986C13.4863 3.66563 12.6338 3.1227 11.6998 2.76306C10.7659 2.40342 9.76938 2.23434 8.76906 2.26579C7.76874 2.29724 6.78483 2.52858 5.8753 2.94617C4.96578 3.36377 4.14903 3.95918 3.47317 4.69732C2.79732 5.43546 2.27604 6.30141 1.94004 7.24413C1.60404 8.18686 1.46012 9.1873 1.51675 10.1865C1.57339 11.1857 1.82944 12.1635 2.26981 13.0622L1.55169 15.5766C1.4876 15.8015 1.4848 16.0395 1.54356 16.2659C1.60231 16.4923 1.7205 16.6989 1.88589 16.8643C2.05127 17.0296 2.25785 17.1478 2.48425 17.2066C2.71064 17.2653 2.94862 17.2625 3.17356 17.1985L5.68794 16.4803C6.44666 16.8528 7.26281 17.0947 8.102 17.1956C8.50203 18.1329 9.08884 18.9787 9.82664 19.6816C10.5644 20.3845 11.4377 20.9297 12.3932 21.2838C13.3487 21.638 14.3663 21.7938 15.384 21.7416C16.4017 21.6894 17.3981 21.4304 18.3123 20.9803L20.8267 21.6985C21.0516 21.7625 21.2896 21.7653 21.516 21.7066C21.7424 21.6478 21.949 21.5296 22.1144 21.3643C22.2797 21.1989 22.3979 20.9923 22.4567 20.7659C22.5155 20.5395 22.5126 20.3015 22.4486 20.0766L21.7304 17.5622ZM20.2061 17.6878L20.9139 20.1638L18.4379 19.456C18.2493 19.4029 18.0474 19.4258 17.8754 19.5197C16.4929 20.2719 14.8703 20.4512 13.3569 20.0192C11.8435 19.5872 10.5601 18.5784 9.78294 17.2097C10.8099 17.1028 11.8037 16.7847 12.702 16.2755C13.6003 15.7664 14.3836 15.077 15.0029 14.2508C15.6221 13.4246 16.064 12.4793 16.3007 11.4742C16.5373 10.4692 16.5638 9.42607 16.3782 8.41033C17.277 8.62213 18.1147 9.03849 18.8261 9.62698C19.5376 10.2155 20.1037 10.9602 20.4802 11.8033C20.8568 12.6463 21.0337 13.5649 20.9972 14.4875C20.9607 15.4101 20.7118 16.3119 20.2698 17.1225C20.1751 17.2953 20.1522 17.4983 20.2061 17.6878Z" fill="#33C481"/>
</svg>
