<svg width="29" height="28" viewBox="0 0 29 28" fill="none" xmlns="http://www.w3.org/2000/svg">
<path d="M25.8519 20.4892C26.469 19.2348 26.7766 17.8508 26.7488 16.453C26.7211 15.0553 26.3588 13.6846 25.6924 12.4557C25.026 11.2268 24.0748 10.1754 22.9186 9.38964C21.7623 8.60389 20.4346 8.10662 19.0466 7.93949C18.5863 6.86644 17.9159 5.89637 17.0749 5.08644C16.2338 4.2765 15.2392 3.64309 14.1496 3.22351C13.0599 2.80393 11.8974 2.60667 10.7303 2.64336C9.56329 2.68005 8.41539 2.94994 7.35428 3.43714C6.29316 3.92434 5.34029 4.61898 4.55179 5.48015C3.7633 6.34131 3.15514 7.35158 2.76314 8.45143C2.37113 9.55127 2.20323 10.7185 2.2693 11.8842C2.33538 13.0499 2.6341 14.1907 3.14787 15.2392L2.31006 18.1726C2.23529 18.4351 2.23202 18.7127 2.30057 18.9768C2.36912 19.2409 2.50701 19.482 2.69996 19.6749C2.89291 19.8679 3.13392 20.0057 3.39804 20.0743C3.66217 20.1428 3.93981 20.1396 4.20224 20.0648L7.13568 19.227C8.02086 19.6616 8.97303 19.9437 9.95209 20.0615C10.4188 21.1549 11.1034 22.1418 11.9642 22.9618C12.8249 23.7819 13.8438 24.4179 14.9585 24.8311C16.0732 25.2443 17.2605 25.426 18.4478 25.3651C19.6351 25.3042 20.7975 25.0021 21.8641 24.477L24.7976 25.3148C25.06 25.3896 25.3376 25.3928 25.6018 25.3243C25.8659 25.2557 26.1069 25.1179 26.2998 24.9249C26.4928 24.732 26.6307 24.4909 26.6992 24.2268C26.7678 23.9627 26.7645 23.6851 26.6897 23.4226L25.8519 20.4892ZM24.0735 20.6357L24.8993 23.5243L22.0107 22.6986C21.7906 22.6367 21.5551 22.6634 21.3544 22.7729C19.7415 23.6505 17.8485 23.8597 16.0828 23.3557C14.3171 22.8517 12.8199 21.6747 11.9132 20.0779C13.1113 19.9532 14.2708 19.5821 15.3187 18.9881C16.3667 18.394 17.2806 17.5898 18.0031 16.6259C18.7256 15.6619 19.2411 14.5591 19.5172 13.3866C19.7933 12.214 19.8241 10.997 19.6077 9.81199C20.6562 10.0591 21.6335 10.5448 22.4636 11.2314C23.2936 11.918 23.954 12.7869 24.3934 13.7704C24.8327 14.754 25.0391 15.8257 24.9965 16.902C24.954 17.9784 24.6635 19.0304 24.1479 19.9762C24.0374 20.1778 24.0107 20.4147 24.0735 20.6357Z" fill="#222222"/>
</svg>
