<svg width="28" height="28" viewBox="0 0 28 28" fill="none" xmlns="http://www.w3.org/2000/svg">
<path d="M25.1191 20.4673C25.7413 19.2341 26.0548 17.8681 26.0325 16.4869C26.0103 15.1058 25.653 13.7506 24.9913 12.538C24.3297 11.3255 23.3835 10.2917 22.234 9.52552C21.0846 8.75938 19.7663 8.28381 18.3925 8.13968C17.9564 7.07792 17.3104 6.11509 16.4934 5.30884C15.6764 4.50259 14.7051 3.8695 13.6376 3.44749C12.5702 3.02548 11.4285 2.82321 10.2811 2.85281C9.13361 2.88241 8.00392 3.14326 6.95964 3.61975C5.91536 4.09623 4.97798 4.77855 4.20361 5.62585C3.42925 6.47315 2.83383 7.468 2.45302 8.55084C2.0722 9.63368 1.91381 10.7822 1.98734 11.9277C2.06087 13.0732 2.3648 14.1921 2.88093 15.2173L2.02015 18.2328C1.95602 18.4578 1.95318 18.6958 2.01193 18.9222C2.07068 19.1487 2.18888 19.3553 2.35429 19.5207C2.51971 19.6861 2.72632 19.8043 2.95276 19.8631C3.17919 19.9218 3.41721 19.919 3.64218 19.8548L6.65765 18.9941C7.57972 19.4574 8.57797 19.7501 9.60422 19.8581C10.0506 20.9468 10.7173 21.9315 11.5623 22.7503C12.4074 23.5691 13.4126 24.2044 14.5148 24.6163C15.617 25.0281 16.7925 25.2077 17.9675 25.1436C19.1424 25.0795 20.2914 24.7733 21.3423 24.2441L24.3578 25.1048C24.5828 25.169 24.8208 25.1718 25.0472 25.1131C25.2737 25.0543 25.4803 24.9361 25.6457 24.7707C25.8111 24.6053 25.9293 24.3987 25.9881 24.1722C26.0468 23.9458 26.044 23.7078 25.9798 23.4828L25.1191 20.4673ZM6.72984 17.6345C6.66879 17.6342 6.60801 17.6427 6.54937 17.6597L3.28125 18.5937L4.21422 15.3267C4.26186 15.1608 4.24221 14.9828 4.15953 14.8312C3.32977 13.3065 3.07724 11.5338 3.44821 9.83804C3.81917 8.14225 4.78878 6.63692 6.17937 5.59789C7.56996 4.55886 9.2884 4.05572 11.0198 4.18067C12.7512 4.30562 14.3796 5.05028 15.6066 6.2782C16.8336 7.50613 17.577 9.13508 17.7006 10.8666C17.8242 12.598 17.3198 14.3161 16.2797 15.7059C15.2396 17.0957 13.7336 18.0642 12.0375 18.4339C10.3414 18.8035 8.56895 18.5497 7.04484 17.7187C6.94842 17.6651 6.84019 17.6361 6.72984 17.6345ZM23.7847 20.5756L24.7187 23.8437L21.4517 22.9108C21.2858 22.8631 21.1078 22.8828 20.9562 22.9655C20.1076 23.4281 19.1746 23.7156 18.2127 23.8109C17.2508 23.9062 16.2796 23.8073 15.3566 23.5202C14.4336 23.233 13.5777 22.7634 12.8397 22.1393C12.1016 21.5151 11.4964 20.749 11.06 19.8866C12.2871 19.8067 13.4824 19.4622 14.5638 18.8768C15.6452 18.2914 16.5872 17.4789 17.3249 16.4951C18.0627 15.5113 18.5788 14.3794 18.8378 13.1773C19.0969 11.9752 19.0927 10.7313 18.8256 9.53093C19.9458 9.73953 21.0007 10.2103 21.904 10.9048C22.8074 11.5993 23.5335 12.4978 24.0229 13.5268C24.5124 14.5557 24.7513 15.686 24.7202 16.825C24.689 17.964 24.3887 19.0795 23.8437 20.0802C23.7596 20.2311 23.7384 20.4091 23.7847 20.5756Z" fill="#222222"/>
</svg>
