<svg width="28" height="28" viewBox="0 0 28 28" fill="none" xmlns="http://www.w3.org/2000/svg">
<path d="M23.7858 11.5106L15.0358 3.2528L15.026 3.24405C14.7448 2.98657 14.3774 2.84375 13.9962 2.84375C13.615 2.84375 13.2476 2.98657 12.9664 3.24405L12.9566 3.2528L4.20658 11.5106C4.05181 11.6547 3.92857 11.8293 3.84461 12.0234C3.76066 12.2174 3.71781 12.4268 3.71877 12.6383V22.75C3.71877 23.1561 3.88009 23.5456 4.16726 23.8327C4.45442 24.1199 4.8439 24.2812 5.25002 24.2812H10.5C10.9061 24.2812 11.2956 24.1199 11.5828 23.8327C11.8699 23.5456 12.0313 23.1561 12.0313 22.75V17.5C12.0313 17.442 12.0543 17.3863 12.0953 17.3453C12.1364 17.3043 12.192 17.2812 12.25 17.2812H15.75C15.808 17.2812 15.8637 17.3043 15.9047 17.3453C15.9457 17.3863 15.9688 17.442 15.9688 17.5V22.75C15.9688 23.1561 16.1301 23.5456 16.4173 23.8327C16.7044 24.1199 17.0939 24.2812 17.5 24.2812H22.75C23.1561 24.2812 23.5456 24.1199 23.8328 23.8327C24.1199 23.5456 24.2813 23.1561 24.2813 22.75V12.6383C24.2812 12.4262 24.2372 12.2165 24.1519 12.0224C24.0666 11.8283 23.942 11.654 23.7858 11.5106ZM22.9688 22.75C22.9688 22.808 22.9457 22.8636 22.9047 22.9047C22.8637 22.9457 22.808 22.9687 22.75 22.9687H17.5C17.442 22.9687 17.3864 22.9457 17.3453 22.9047C17.3043 22.8636 17.2813 22.808 17.2813 22.75V17.5C17.2813 17.0939 17.1199 16.7044 16.8328 16.4172C16.5456 16.1301 16.1561 15.9687 15.75 15.9687H12.25C11.8439 15.9687 11.4544 16.1301 11.1673 16.4172C10.8801 16.7044 10.7188 17.0939 10.7188 17.5V22.75C10.7188 22.808 10.6957 22.8636 10.6547 22.9047C10.6137 22.9457 10.558 22.9687 10.5 22.9687H5.25002C5.192 22.9687 5.13636 22.9457 5.09534 22.9047C5.05431 22.8636 5.03127 22.808 5.03127 22.75V12.6383C5.0312 12.6078 5.03749 12.5777 5.04973 12.5498C5.06197 12.522 5.0799 12.4969 5.10236 12.4764L5.1122 12.4676L13.8556 4.21202C13.8955 4.17724 13.9466 4.15808 13.9995 4.15808C14.0524 4.15808 14.1034 4.17724 14.1433 4.21202L22.8878 12.4687L22.8966 12.4775C22.9192 12.4979 22.9374 12.5229 22.9498 12.5508C22.9622 12.5787 22.9687 12.6088 22.9688 12.6394V22.75Z" fill="#222222"/>
</svg>
