<svg width="28" height="28" viewBox="0 0 28 28" fill="none" xmlns="http://www.w3.org/2000/svg">
<path d="M23.625 4.59375H4.375C3.96889 4.59375 3.57941 4.75508 3.29224 5.04224C3.00508 5.32941 2.84375 5.71889 2.84375 6.125V21.875C2.84375 22.2811 3.00508 22.6706 3.29224 22.9578C3.57941 23.2449 3.96889 23.4062 4.375 23.4062H23.625C24.0311 23.4062 24.4206 23.2449 24.7078 22.9578C24.9949 22.6706 25.1562 22.2811 25.1562 21.875V6.125C25.1562 5.71889 24.9949 5.32941 24.7078 5.04224C24.4206 4.75508 24.0311 4.59375 23.625 4.59375ZM4.375 5.90625H23.625C23.683 5.90625 23.7387 5.9293 23.7797 5.97032C23.8207 6.01134 23.8438 6.06698 23.8438 6.125V10.7188H4.15625V6.125C4.15625 6.06698 4.1793 6.01134 4.22032 5.97032C4.26134 5.9293 4.31698 5.90625 4.375 5.90625ZM4.15625 21.875V12.0312H10.7188V22.0938H4.375C4.31698 22.0938 4.26134 22.0707 4.22032 22.0297C4.1793 21.9887 4.15625 21.933 4.15625 21.875ZM23.625 22.0938H12.0312V12.0312H23.8438V21.875C23.8438 21.933 23.8207 21.9887 23.7797 22.0297C23.7387 22.0707 23.683 22.0938 23.625 22.0938Z" fill="#222222"/>
</svg>
