<svg width="28" height="28" viewBox="0 0 28 28" fill="none" xmlns="http://www.w3.org/2000/svg">
<path d="M25.0677 23.2968C23.3384 20.3087 20.6238 18.212 17.4694 17.3228C19.003 16.5432 20.2293 15.2698 20.9507 13.708C21.6721 12.1462 21.8464 10.3869 21.4456 8.7139C21.0448 7.04088 20.0922 5.55161 18.7414 4.48623C17.3906 3.42084 15.7204 2.84143 14 2.84143C12.2796 2.84143 10.6094 3.42084 9.25864 4.48623C7.90787 5.55161 6.95527 7.04088 6.55446 8.7139C6.15364 10.3869 6.32797 12.1462 7.04933 13.708C7.77069 15.2698 8.99704 16.5432 10.5306 17.3228C7.37626 18.2109 4.66157 20.3076 2.93236 23.2968C2.88487 23.3715 2.85299 23.455 2.83863 23.5424C2.82426 23.6297 2.82771 23.719 2.84877 23.805C2.86983 23.891 2.90805 23.9718 2.96116 24.0426C3.01426 24.1134 3.08113 24.1727 3.15776 24.217C3.23439 24.2613 3.31918 24.2897 3.40704 24.3003C3.4949 24.311 3.58402 24.3038 3.66902 24.2791C3.75402 24.2545 3.83316 24.2129 3.90167 24.1568C3.97018 24.1008 4.02664 24.0315 4.06767 23.9531C6.16876 20.3229 9.88095 18.1562 14 18.1562C18.1191 18.1562 21.8313 20.3229 23.9324 23.9531C23.9734 24.0315 24.0298 24.1008 24.0984 24.1568C24.1669 24.2129 24.246 24.2545 24.331 24.2791C24.416 24.3038 24.5051 24.311 24.593 24.3003C24.6808 24.2897 24.7656 24.2613 24.8423 24.217C24.9189 24.1727 24.9858 24.1134 25.0389 24.0426C25.092 23.9718 25.1302 23.891 25.1513 23.805C25.1723 23.719 25.1758 23.6297 25.1614 23.5424C25.147 23.455 25.1152 23.3715 25.0677 23.2968ZM7.65626 10.4999C7.65626 9.24526 8.02832 8.01877 8.72538 6.97554C9.42244 5.93232 10.4132 5.11922 11.5724 4.63908C12.7315 4.15894 14.007 4.03331 15.2376 4.27808C16.4682 4.52286 17.5985 5.12704 18.4857 6.01423C19.3729 6.90142 19.9771 8.03177 20.2219 9.26233C20.4666 10.4929 20.341 11.7684 19.8609 12.9276C19.3807 14.0868 18.5676 15.0775 17.5244 15.7746C16.4812 16.4716 15.2547 16.8437 14 16.8437C12.3182 16.8417 10.7058 16.1727 9.51654 14.9834C8.3273 13.7942 7.65829 12.1818 7.65626 10.4999Z" fill="#222222"/>
</svg>
