<svg width="50" height="50" viewBox="0 0 50 50" fill="none" xmlns="http://www.w3.org/2000/svg">
<rect width="50" height="50" rx="8" fill="#F8F8F8"/>
<path d="M32.281 31.2194C32.3507 31.2891 32.406 31.3718 32.4437 31.4629C32.4814 31.5539 32.5008 31.6515 32.5008 31.7501C32.5008 31.8486 32.4814 31.9462 32.4437 32.0372C32.406 32.1283 32.3507 32.211 32.281 32.2807C32.2114 32.3504 32.1286 32.4056 32.0376 32.4433C31.9465 32.4811 31.849 32.5005 31.7504 32.5005C31.6519 32.5005 31.5543 32.4811 31.4632 32.4433C31.3722 32.4056 31.2895 32.3504 31.2198 32.2807L25.0004 26.0604L18.781 32.2807C18.6403 32.4214 18.4494 32.5005 18.2504 32.5005C18.0514 32.5005 17.8605 32.4214 17.7198 32.2807C17.5791 32.1399 17.5 31.9491 17.5 31.7501C17.5 31.551 17.5791 31.3602 17.7198 31.2194L23.9401 25.0001L17.7198 18.7807C17.5791 18.6399 17.5 18.4491 17.5 18.2501C17.5 18.051 17.5791 17.8602 17.7198 17.7194C17.8605 17.5787 18.0514 17.4996 18.2504 17.4996C18.4494 17.4996 18.6403 17.5787 18.781 17.7194L25.0004 23.9397L31.2198 17.7194C31.3605 17.5787 31.5514 17.4996 31.7504 17.4996C31.9494 17.4996 32.1403 17.5787 32.281 17.7194C32.4218 17.8602 32.5008 18.051 32.5008 18.2501C32.5008 18.4491 32.4218 18.6399 32.281 18.7807L26.0607 25.0001L32.281 31.2194Z" fill="#606060"/>
</svg>
