<svg width="19" height="19" viewBox="0 0 19 19" fill="none" xmlns="http://www.w3.org/2000/svg">
<path d="M9.48857 4.6145C6.84429 4.6145 4.13181 6.14495 1.99644 9.20586C1.93549 9.29419 1.90208 9.39861 1.90045 9.50591C1.89882 9.61322 1.92904 9.7186 1.98728 9.80875C3.62799 12.377 6.30417 14.3855 9.48857 14.3855C12.6384 14.3855 15.3695 12.3709 17.0133 9.79687C17.0701 9.70849 17.1004 9.60562 17.1004 9.50052C17.1004 9.39542 17.0701 9.29254 17.0133 9.20416C15.3658 6.65963 12.6146 4.6145 9.48857 4.6145Z" stroke="#CCCCCC" stroke-width="1.3" stroke-linecap="round" stroke-linejoin="round"/>
<path d="M9.49971 12.2145C10.9989 12.2145 12.2143 10.9992 12.2143 9.49996C12.2143 8.00075 10.9989 6.7854 9.49971 6.7854C8.00051 6.7854 6.78516 8.00075 6.78516 9.49996C6.78516 10.9992 8.00051 12.2145 9.49971 12.2145Z" stroke="#CCCCCC" stroke-width="1.3" stroke-miterlimit="10"/>
</svg>
