<svg width="19" height="19" viewBox="0 0 19 19" fill="none" xmlns="http://www.w3.org/2000/svg">
<path d="M15.0734 15.5751C15.0068 15.5752 14.9409 15.5622 14.8794 15.5367C14.818 15.5112 14.7622 15.4738 14.7152 15.4266L3.56903 4.28041C3.47802 4.18463 3.42804 4.05708 3.42973 3.92496C3.43142 3.79285 3.48465 3.66662 3.57808 3.5732C3.67151 3.47977 3.79773 3.42654 3.92985 3.42485C4.06196 3.42315 4.18951 3.47314 4.2853 3.56414L15.4315 14.7103C15.5023 14.7812 15.5505 14.8714 15.57 14.9697C15.5896 15.0679 15.5795 15.1698 15.5412 15.2623C15.5029 15.3549 15.438 15.434 15.3547 15.4897C15.2714 15.5453 15.1735 15.5751 15.0734 15.5751Z" fill="#CCCCCC"/>
<path d="M9.48993 13.5493C8.17614 13.5493 6.90921 13.1604 5.72429 12.3935C4.64546 11.6968 3.67428 10.6991 2.91558 9.51194V9.50941C3.54699 8.60473 4.23856 7.83969 4.98142 7.22285C4.98814 7.21724 4.99363 7.21028 4.99752 7.20244C5.00142 7.1946 5.00365 7.18603 5.00406 7.17728C5.00448 7.16853 5.00308 7.15979 4.99994 7.15161C4.99681 7.14343 4.99201 7.13599 4.98586 7.12976L4.35508 6.49994C4.34388 6.48863 4.32882 6.48197 4.31292 6.48126C4.29702 6.48056 4.28144 6.48587 4.26927 6.49613C3.48017 7.16111 2.74775 7.9768 2.08183 8.93183C1.96726 9.09627 1.90416 9.29106 1.90055 9.49144C1.89695 9.69183 1.95299 9.88876 2.06157 10.0572C2.89785 11.3659 3.97415 12.4682 5.17363 13.2443C6.52416 14.1192 7.9776 14.5626 9.48993 14.5626C10.3063 14.56 11.1168 14.4255 11.8902 14.1642C11.9004 14.1607 11.9095 14.1547 11.9168 14.1468C11.924 14.1388 11.9291 14.1291 11.9315 14.1186C11.9339 14.1081 11.9337 14.0971 11.9307 14.0868C11.9277 14.0764 11.9222 14.067 11.9145 14.0594L11.2312 13.3761C11.2155 13.3607 11.196 13.3497 11.1748 13.3442C11.1535 13.3386 11.1312 13.3387 11.1099 13.3444C10.5807 13.4807 10.0364 13.5495 9.48993 13.5493Z" fill="#CCCCCC"/>
<path d="M16.9372 8.94467C16.0993 7.64893 15.0122 6.54824 13.7937 5.76136C12.4457 4.88993 10.9575 4.4292 9.4901 4.4292C8.68244 4.43063 7.88077 4.56797 7.11869 4.83547C7.10854 4.839 7.09945 4.84506 7.09228 4.85307C7.08512 4.86109 7.08011 4.8708 7.07774 4.88128C7.07536 4.89177 7.07569 4.90269 7.0787 4.91301C7.08171 4.92333 7.0873 4.93271 7.09494 4.94028L7.77733 5.62267C7.79321 5.63828 7.81294 5.64943 7.83451 5.65499C7.85608 5.66055 7.87873 5.66032 7.90019 5.65433C8.41854 5.51411 8.95312 5.44288 9.4901 5.44249C10.7786 5.44249 12.0417 5.83609 13.244 6.61411C14.3431 7.32341 15.3257 8.32023 16.0863 9.49565C16.0869 9.49637 16.0872 9.49726 16.0872 9.49818C16.0872 9.4991 16.0869 9.49999 16.0863 9.50072C15.5342 10.3699 14.8491 11.147 14.0559 11.8037C14.0491 11.8093 14.0436 11.8163 14.0396 11.8241C14.0357 11.832 14.0334 11.8406 14.0329 11.8494C14.0325 11.8582 14.0339 11.867 14.037 11.8752C14.0402 11.8834 14.045 11.8909 14.0512 11.8971L14.6813 12.527C14.6925 12.5382 14.7074 12.5449 14.7233 12.5457C14.7391 12.5464 14.7546 12.5412 14.7668 12.5311C15.6135 11.8181 16.3465 10.9801 16.9403 10.046C17.0453 9.88138 17.1008 9.6901 17.1002 9.49487C17.0997 9.29964 17.0431 9.10868 16.9372 8.94467Z" fill="#CCCCCC"/>
<path d="M9.50088 6.45581C9.27309 6.45569 9.046 6.48119 8.82391 6.53184C8.8127 6.53417 8.80232 6.5395 8.79389 6.54725C8.78546 6.55501 8.77929 6.56491 8.77604 6.5759C8.77279 6.58688 8.77258 6.59855 8.77543 6.60964C8.77828 6.62074 8.78409 6.63085 8.79223 6.63891L12.3589 10.2046C12.3669 10.2128 12.3771 10.2186 12.3882 10.2214C12.3993 10.2243 12.4109 10.2241 12.4219 10.2208C12.4329 10.2176 12.4428 10.2114 12.4505 10.203C12.4583 10.1945 12.4636 10.1842 12.466 10.1729C12.5675 9.72755 12.5674 9.26501 12.4657 8.81967C12.3639 8.37433 12.1632 7.95763 11.8783 7.60052C11.5935 7.2434 11.2318 6.95505 10.8202 6.75688C10.4086 6.55871 9.95769 6.4558 9.50088 6.45581Z" fill="#CCCCCC"/>
<path d="M6.64468 8.78857C6.63662 8.78043 6.62651 8.77462 6.61541 8.77177C6.60431 8.76892 6.59265 8.76913 6.58167 8.77238C6.57068 8.77563 6.56078 8.7818 6.55302 8.79023C6.54526 8.79866 6.53994 8.80903 6.53761 8.82025C6.42272 9.32214 6.43715 9.84499 6.57953 10.3398C6.72191 10.8346 6.98759 11.2851 7.35166 11.6492C7.71573 12.0133 8.16627 12.2789 8.66107 12.4213C9.15586 12.5637 9.67871 12.5781 10.1806 12.4632C10.1918 12.4609 10.2022 12.4556 10.2106 12.4478C10.2191 12.4401 10.2252 12.4302 10.2285 12.4192C10.2317 12.4082 10.2319 12.3965 10.2291 12.3854C10.2262 12.3743 10.2204 12.3642 10.2123 12.3562L6.64468 8.78857Z" fill="#CCCCCC"/>
</svg>
