<svg width="94" height="25" viewBox="0 0 94 25" fill="none" xmlns="http://www.w3.org/2000/svg">
<path d="M0 23.8451C0 23.9556 0.0895428 24.0451 0.2 24.0451H11.9008C12.0113 24.0451 12.1008 23.9556 12.1008 23.8451V12.1443C12.1008 12.0338 12.0113 11.9443 11.9008 11.9443H0.199999C0.0895428 11.9443 0 12.0338 0 12.1443V23.8451Z" fill="#33C481"/>
<path d="M11.8992 11.946C11.8992 12.0564 11.9887 12.146 12.0992 12.146H23.8C23.9105 12.146 24 12.0564 24 11.946V0.245152C24 0.134695 23.9105 0.0451527 23.8 0.0451527H12.0992C11.9887 0.0451527 11.8992 0.134695 11.8992 0.245152V11.946Z" fill="#33C481"/>
<path d="M59.7082 23.0911H52.8281V0.999207H59.7082V23.0911Z" fill="#33C481"/>
<path d="M40.0282 23.0911H46.9082V9.58347C46.9082 2.64032 43.8785 0.999207 38.4502 0.999207H34.0003V7.18492H38.2608C39.7126 7.18492 40.0282 8.41575 40.0282 9.86751H34.0003V15.5483H40.0282V23.0911Z" fill="#33C481"/>
<path d="M93.9992 23.0911H87.1191V0.999207H93.9992V23.0911Z" fill="#33C481"/>
<path d="M74.325 23.0911H81.2051V9.58347C81.2051 2.64032 78.1753 0.999207 72.7471 0.999207H68.2971V7.18492H72.5577C74.0094 7.18492 74.325 8.41575 74.325 9.86751H68.2971V15.5483H74.325V23.0911Z" fill="#33C481"/>
</svg>
