<svg width="18" height="21" viewBox="0 0 18 21" fill="none" xmlns="http://www.w3.org/2000/svg">
<path d="M18 15.3189C17.5077 16.4048 17.2723 16.8903 16.6401 17.8499C15.7569 19.19 14.5098 20.8623 12.968 20.8738C11.5966 20.8853 11.2426 19.9823 9.38143 19.997C7.52024 20.0061 7.13253 20.8902 5.75948 20.8762C4.21769 20.8623 3.03727 19.3557 2.15318 18.018C-0.318792 14.2659 -0.579736 9.86826 0.948064 7.52838C2.02888 5.86923 3.73943 4.8949 5.34543 4.8949C6.98107 4.8949 8.0092 5.7905 9.36167 5.7905C10.6738 5.7905 11.4731 4.89244 13.3647 4.89244C14.7954 4.89244 16.3084 5.66911 17.3892 7.00923C13.8529 8.93985 14.4274 13.9723 18 15.3189ZM11.9291 3.39485C12.6173 2.51484 13.1392 1.27314 12.9499 0.00683594C11.8271 0.0831094 10.5141 0.797455 9.74691 1.72258C9.05216 2.56487 8.47594 3.81641 8.70067 5.02694C9.92554 5.06631 11.1932 4.33884 11.9291 3.39485Z" fill="#EEEEEE"/>
</svg>
