<svg width="50" height="50" viewBox="0 0 50 50" fill="none" xmlns="http://www.w3.org/2000/svg">
<path d="M0 49.5833C0 49.8135 0.186548 50 0.416666 50H24.7934C25.0235 50 25.21 49.8135 25.21 49.5833V25.2066C25.21 24.9765 25.0235 24.79 24.7934 24.79H0.416666C0.186547 24.79 0 24.9765 0 25.2066V49.5833Z" fill="#33C481"/>
<path d="M24.79 24.7935C24.79 25.0236 24.9765 25.2101 25.2066 25.2101H49.5833C49.8135 25.2101 50 25.0236 50 24.7935V0.416767C50 0.186649 49.8135 9.91821e-05 49.5833 9.91821e-05H25.2066C24.9765 9.91821e-05 24.79 0.186649 24.79 0.416767V24.7935Z" fill="#33C481"/>
</svg>
